<svg xmlns="http://www.w3.org/2000/svg" version="1.1" xmlns:xlink="http://www.w3.org/1999/xlink" xmlns:svgjs="http://svgjs.dev/svgjs" viewBox="0 0 23.549308451648056 7.43988618587554"><g transform="matrix(0.7423318028670157,0,0,0.7423318028670157,7.895224990385769,2.860434214988196)"><g clip-path="url(#SvgjsClipPath24064)"><g clip-path="url(#a8bf88d6d-1dae-49c2-a0f3-55c59d8a7b011f0e9624-70f4-49b9-b6eb-0a531a6fecd8)"><path d=" M -1.6306220724683698 2.2865417943612343 L -3.7474634395913924 0.16968055433885065 C -3.813282482277781 0.10384163875310026 -3.6985562342619227 -0.007267741578904641 -3.6985562342619227 -0.007267741578904641 C -3.692415508359117 -0.013408467481710762 -3.697801064086173 -0.028829837386492807 -3.710380609382213 -0.041429255581894475 L -3.7446017420832884 -0.07565038828296933 C -3.7571812873793276 -0.08822993357900932 -3.772582784384748 -0.09359561640670422 -3.7787831289856397 -0.08743501760453598 L -4.073955303206936 0.20773715661675962 C -4.080135774908466 0.21391762831828998 -4.074730346282047 0.22937874402179514 -4.062170673885369 0.24193841641847325 L -4.027969414083656 0.27617942201891044 C -4.015369995888254 0.28873909441558854 -3.999948625983472 0.29410477724328343 -3.993768154281942 0.2879441784411154 C -3.993768154281942 0.2879441784411154 -3.8899521280157296 0.1660636866549976 -3.8168794770622725 0.2390965918097312 L -1.7000182370398886 2.3559578318321153 C -1.681099236847424 2.3748768320245794 -1.580939824063789 2.4057394447335048 -1.580939824063789 2.4057394447335048 C -1.580939824063789 2.4057394447335048 -1.6117030722759056 2.3054607945536985 -1.6306220724683698 2.2865417943612343" fill="#004a80" transform="matrix(1,0,0,1,0,0)" fill-rule="nonzero"></path></g><g clip-path="url(#a8bf88d6d-1dae-49c2-a0f3-55c59d8a7b011f0e9624-70f4-49b9-b6eb-0a531a6fecd8)"><path d=" M -3.9574007484497895 2.3559975776308386 L -1.8405395084274057 0.23915621050781644 C -1.774700592841655 0.17333716782142772 -1.6635912125096501 0.2880634158372859 -1.6635912125096501 0.2880634158372859 C -1.6574306137074823 0.2942041417400918 -1.6420291167020622 0.28881858601303567 -1.6294296985066605 0.2762390407169957 L -1.5952085658055855 0.24201790801592038 C -1.5826290205095455 0.22943836271988083 -1.5772633376818503 0.21403686571446046 -1.583404063584657 0.20783652111356887 L -1.878596110705315 -0.0873356531077274 C -1.884776582406845 -0.09353599770861898 -1.9002376981103501 -0.08813056908220052 -1.9127973705070285 -0.07555102378616074 L -1.9470383761074657 -0.04134976398444712 C -1.959598048504144 -0.02875034578904545 -1.9649637313318382 -0.013328975884263405 -1.9588031325296704 -0.007148504182733495 C -1.9588031325296704 -0.007148504182733495 -1.8369226407435528 0.09666752208347873 -1.9099555458982866 0.16974017303693634 L -4.02681678592067 2.2866014130593193 C -4.045735786113134 2.3055204132517844 -4.076578525922698 2.4056798260354197 -4.076578525922698 2.4056798260354197 C -4.076578525922698 2.4056798260354197 -3.976319748642254 2.374916577823303 -3.9574007484497895 2.3559975776308386" fill="#004a80" transform="matrix(1,0,0,1,0,0)" fill-rule="nonzero"></path></g><g clip-path="url(#SvgjsClipPath240621f0e9624-70f4-49b9-b6eb-0a531a6fecd8)"><path d=" M -0.45060633822490637 1.439220445614503 L -0.7151543745296189 1.4362991294083136 L -0.6039058839020814 2.0452842574523054 L -0.8588354369156672 1.9737219468503466 L -0.90963056768451 2.590874836532051 L -1.1374733588679193 2.4554410273811635 L -1.3460791834690728 3.0384125301605156 L -1.531135622326456 2.8491032908397003 L -1.8831045429238693 3.358386082785378 L -2.0128348299579115 3.1277213398925907 L -2.4849751729963243 3.528319245228407 L -2.550237774500582 3.271402402278638 L -3.1100573495234 3.5359703114827123 L -3.1071559062165726 3.271402402278638 L -3.716141034260564 3.3826707658055373 L -3.6445787236586056 3.1277213398925907 L -4.26173161334031 3.076946082023108 L -4.126297804189422 2.8490834179403386 L -4.709269306968776 2.6404775933391846 L -4.519960067647959 2.455421154481802 L -5.029222986694276 2.103452233884388 L -4.79857811670085 1.9737219468503466 L -5.199176022036667 1.501581603811933 L -4.942259179086898 1.436299129408314 L -5.206827088290972 0.8764795543854962 L -4.942259179086898 0.8794008705916851 L -5.053507669714436 0.2703958696483324 L -4.79857811670085 0.3419780531496528 L -4.747782985932007 -0.27519470943141344 L -4.519940194748599 -0.13974102738116412 L -4.311334370147444 -0.7227125301605167 L -4.126277931290061 -0.5334032908397015 L -3.7743090106926473 -1.042666209886018 L -3.6445787236586065 -0.8120213398925915 L -3.172438380620193 -1.2126391181277705 L -3.107155906216573 -0.9557024022786396 L -2.5473363311937556 -1.220270311482714 L -2.550277520299306 -0.9557024022786396 L -1.9412526464565918 -1.066950892906177 L -2.0128348299579124 -0.8120213398925915 L -1.3956819402762077 -0.7612262091237476 L -1.5311157494270953 -0.5333834179403397 L -0.948164119547104 -0.3247775933391853 L -1.1374534859685577 -0.13972115448180222 L -0.6281905669222416 0.2122477661156108 L -0.8588354369156681 0.34197805314965235 L -0.4582375315798499 0.8141183961880663 L -0.7151742474289806 0.8794008705916851 Z" fill="none" transform="matrix(1,0,0,1,0,0)" fill-rule="nonzero" stroke-dasharray="none" stroke-miterlimit="10" stroke-linejoin="miter" stroke-linecap="butt" stroke-width="0.10121267644981227" stroke="#004a80"></path></g><g clip-path="url(#b8bf88d6d-1dae-49c2-a0f3-55c59d8a7b011f0e9624-70f4-49b9-b6eb-0a531a6fecd8)"><path d=" M -2.614390209577158 -0.18004272863067472 C -2.7262348871855506 -0.29188740623906717 -2.907555220962909 -0.29188740623906717 -3.0193998985713018 -0.18004272863067472 C -3.1312247032803326 -0.06819805102228216 -3.1312247032803326 0.11312228275507641 -3.0193998985713018 0.22496696036346897 C -2.907555220962909 0.33681163797186153 -2.7262348871855506 0.33679176507249964 -2.614390209577158 0.22494708746410708 C -2.5025455319687655 0.11312228275507641 -2.5025455319687655 -0.06819805102228216 -2.614390209577158 -0.18004272863067472 M -2.6669739012885665 0.11395694452827332 L -2.7253803525129916 0.17238326865206055 L -2.8168751811748685 0.08086856709082269 L -2.908389882736106 0.17238326865206055 L -2.9668162068598933 0.11397681742763521 L -2.8753015052986552 0.022462115866397125 L -2.9668162068598933 -0.06905258569484096 L -2.908389882736106 -0.12747890981862797 L -2.8168751811748685 -0.035964208257389885 L -2.725380352512992 -0.1274590369192663 L -2.6669739012885665 -0.06905258569484096 L -2.758468729950443 0.022462115866397125 Z" fill="#004a80" transform="matrix(1,0,0,1,0,0)" fill-rule="nonzero"></path></g><g clip-path="url(#b8bf88d6d-1dae-49c2-a0f3-55c59d8a7b011f0e9624-70f4-49b9-b6eb-0a531a6fecd8)"><path d=" M -2.9181673492221276 2.251962949471646 L -2.560176940118079 2.251962949471646 C -2.5802088226748063 2.1133693493222276 -2.699406473047077 2.0068903545415298 -2.8435446121184467 2.0068903545415298 C -2.9876827511898174 2.0068903545415298 -3.1069002744614496 2.1133693493222276 -3.1269122841188146 2.251962949471646 Z" fill="#004a80" transform="matrix(1,0,0,1,0,0)" fill-rule="nonzero"></path></g><g clip-path="url(#b8bf88d6d-1dae-49c2-a0f3-55c59d8a7b011f0e9624-70f4-49b9-b6eb-0a531a6fecd8)"><path d=" M -2.768902002115405 2.3345745921187833 L -3.126912284118815 2.3345745921187833 C -3.1069002744614496 2.4731681922682025 -2.9876827511898174 2.5796471870489004 -2.8435247392190854 2.5796471870489004 C -2.699406473047077 2.5796471870489004 -2.5801889497754447 2.4731681922682025 -2.5601570672187175 2.3345745921187833 Z" fill="#004a80" transform="matrix(1,0,0,1,0,0)" fill-rule="nonzero"></path></g></g><g><path d=" M 0.71475 0.13574999999999993 Q 0.732 0.14549999999999996 0.732 0.16349999999999998 Q 0.732 0.17099999999999993 0.7275 0.18299999999999994 Q 0.723 0.1935 0.71475 0.20174999999999998 Q 0.7065 0.20999999999999996 0.69975 0.21375 Q 0.6930000000000001 0.21750000000000003 0.6900000000000001 0.22050000000000003 Q 0.666 0.23399999999999999 0.651 0.25049999999999994 Q 0.636 0.267 0.6255000000000001 0.3015 L 0.444 0.948 Q 0.438 0.9675 0.438 0.9855 Q 0.438 1.0035 0.44325000000000003 1.0155 Q 0.4485 1.0275 0.459 1.041 Q 0.47250000000000003 1.0605 0.47250000000000003 1.0725 Q 0.47250000000000003 1.0755 0.46950000000000003 1.0875 Q 0.4635 1.1085 0.4425 1.11675 Q 0.4215 1.125 0.3795 1.125 L 0.027 1.125 Q -0.0045000000000000005 1.125 -0.021750000000000002 1.1145 Q -0.039 1.104 -0.039 1.086 Q -0.039 1.077 -0.0345 1.0665 Q -0.0285 1.05 -0.015 1.041 Q -0.0015 1.032 0.0015 1.0305 Q 0.025500000000000002 1.0155 0.0405 0.99975 Q 0.0555 0.984 0.066 0.948 L 0.249 0.3015 Q 0.255 0.28200000000000003 0.255 0.264 Q 0.255 0.24749999999999994 0.24975 0.23624999999999996 Q 0.2445 0.22499999999999998 0.23550000000000001 0.20999999999999996 Q 0.222 0.1905 0.222 0.1785 Q 0.222 0.17399999999999993 0.225 0.16200000000000003 Q 0.231 0.14249999999999996 0.25125000000000003 0.13424999999999998 Q 0.2715 0.126 0.3135 0.126 L 0.666 0.126 Q 0.6975 0.126 0.71475 0.13574999999999993 M 1.534487548828125 0.9179999999999999 Q 1.531487548828125 0.9239999999999999 1.531487548828125 0.9359999999999999 Q 1.531487548828125 0.9465 1.5367375488281252 0.9525 Q 1.5419875488281252 0.9585 1.5509875488281253 0.9585 Q 1.568987548828125 0.9585 1.5817375488281251 0.94275 Q 1.5944875488281252 0.927 1.598987548828125 0.927 Q 1.6064875488281252 0.927 1.6109875488281253 0.93675 Q 1.615487548828125 0.9465 1.615487548828125 0.96 Q 1.6169875488281251 1.0035 1.586987548828125 1.04475 Q 1.556987548828125 1.086 1.499237548828125 1.11225 Q 1.4414875488281251 1.1385 1.3604875488281252 1.1385 Q 1.261487548828125 1.1385 1.202987548828125 1.09275 Q 1.144487548828125 1.047 1.1429875488281251 0.9705 Q 1.1429875488281251 0.915 1.169987548828125 0.846 L 1.252487548828125 0.63 Q 1.2599875488281251 0.6105 1.2599875488281251 0.5985 Q 1.2599875488281251 0.579 1.247237548828125 0.56775 Q 1.2344875488281253 0.5565 1.216487548828125 0.5565 Q 1.1834875488281251 0.5565 1.153487548828125 0.5872499999999999 Q 1.123487548828125 0.618 1.109987548828125 0.663 L 1.016987548828125 0.969 Q 1.0109875488281252 0.9855 1.0109875488281252 1.0005 Q 1.0109875488281252 1.0185 1.018487548828125 1.02975 Q 1.0259875488281252 1.041 1.039487548828125 1.053 Q 1.0499875488281252 1.062 1.0544875488281251 1.0695 Q 1.058987548828125 1.077 1.0559875488281252 1.0875 Q 1.0499875488281252 1.107 1.027487548828125 1.116 Q 1.004987548828125 1.125 0.9569875488281252 1.125 L 0.6149875488281251 1.125 Q 0.5759875488281251 1.125 0.5587375488281251 1.11225 Q 0.5414875488281251 1.0995 0.5459875488281252 1.0785 Q 0.5519875488281251 1.0605 0.5774875488281251 1.047 Q 0.5999875488281251 1.035 0.6149875488281251 1.0185 Q 0.6299875488281251 1.002 0.6404875488281251 0.966 L 0.7739875488281251 0.5325 Q 0.7769875488281252 0.525 0.7769875488281252 0.5115 Q 0.7769875488281252 0.495 0.7702375488281251 0.486 Q 0.7634875488281251 0.477 0.7484875488281251 0.4635 Q 0.7334875488281252 0.4515 0.7274875488281252 0.4425 Q 0.7214875488281252 0.4335 0.7259875488281251 0.4185 Q 0.7349875488281251 0.384 0.8204875488281251 0.35775 Q 0.905987548828125 0.3315 0.9989875488281251 0.3315 Q 1.0739875488281252 0.3315 1.1174875488281253 0.37275 Q 1.1609875488281252 0.41400000000000003 1.156487548828125 0.48749999999999993 Q 1.217987548828125 0.399 1.286987548828125 0.36524999999999996 Q 1.355987548828125 0.3315 1.4369875488281252 0.3315 Q 1.528487548828125 0.3315 1.5847375488281252 0.387 Q 1.6409875488281251 0.4425 1.6409875488281251 0.531 Q 1.6409875488281251 0.5775 1.625987548828125 0.6224999999999999 L 1.534487548828125 0.9179999999999999 M 2.39474267578125 0.363 Q 2.41049267578125 0.375 2.41049267578125 0.396 Q 2.41049267578125 0.402 2.40749267578125 0.41700000000000004 Q 2.38799267578125 0.483 2.31749267578125 0.483 L 2.23049267578125 0.483 L 2.11799267578125 0.8534999999999999 Q 2.11049267578125 0.876 2.11049267578125 0.9 Q 2.11049267578125 0.927 2.12549267578125 0.9375 Q 2.14049267578125 0.948 2.16749267578125 0.948 Q 2.19149267578125 0.948 2.22749267578125 0.942 Q 2.24549267578125 0.9375 2.2589926757812497 0.9375 Q 2.26949267578125 0.9375 2.27474267578125 0.94425 Q 2.27999267578125 0.951 2.27999267578125 0.9615 Q 2.28149267578125 0.9915 2.2357426757812497 1.0342500000000001 Q 2.18999267578125 1.077 2.11199267578125 1.10775 Q 2.03399267578125 1.1385 1.93949267578125 1.1385 Q 1.83749267578125 1.1385 1.77599267578125 1.092 Q 1.71449267578125 1.0455 1.71449267578125 0.9645 Q 1.71449267578125 0.927 1.72649267578125 0.8925 L 1.82249267578125 0.5955 Q 1.82999267578125 0.57 1.82999267578125 0.5549999999999999 Q 1.82999267578125 0.525 1.81574267578125 0.504 Q 1.80149267578125 0.483 1.77599267578125 0.4605 Q 1.75349267578125 0.4395 1.74449267578125 0.42525 Q 1.73549267578125 0.41100000000000003 1.73999267578125 0.39149999999999996 Q 1.74599267578125 0.372 1.76549267578125 0.36149999999999993 Q 1.78499267578125 0.351 1.82699267578125 0.351 L 1.91099267578125 0.351 L 2.00549267578125 0.25649999999999995 Q 2.05499267578125 0.20699999999999996 2.09624267578125 0.1875 Q 2.13749267578125 0.16799999999999993 2.20349267578125 0.16799999999999993 Q 2.29799267578125 0.16799999999999993 2.29799267578125 0.24 Q 2.29799267578125 0.26249999999999996 2.29199267578125 0.28200000000000003 L 2.27099267578125 0.351 L 2.35049267578125 0.351 Q 2.37899267578125 0.351 2.39474267578125 0.363 M 3.195731689453125 0.38249999999999995 Q 3.2459816894531253 0.4335 3.2459816894531253 0.5085 Q 3.2459816894531253 0.537 3.239981689453125 0.5609999999999999 Q 3.224981689453125 0.6224999999999999 3.182981689453125 0.6555 Q 3.140981689453125 0.6885 3.0824816894531253 0.6885 Q 3.025481689453125 0.6885 2.996231689453125 0.6615 Q 2.966981689453125 0.6345000000000001 2.944481689453125 0.5895 Q 2.932481689453125 0.564 2.921981689453125 0.5519999999999999 Q 2.911481689453125 0.54 2.897981689453125 0.54 Q 2.882981689453125 0.54 2.871731689453125 0.5519999999999999 Q 2.860481689453125 0.564 2.851481689453125 0.594 L 2.735981689453125 0.969 Q 2.732981689453125 0.9765 2.732981689453125 0.9915 Q 2.732981689453125 1.011 2.744231689453125 1.02375 Q 2.755481689453125 1.0365 2.774981689453125 1.0485 Q 2.792981689453125 1.0605 2.798981689453125 1.068 Q 2.804981689453125 1.0755 2.803481689453125 1.0875 Q 2.8004816894531253 1.107 2.781731689453125 1.116 Q 2.762981689453125 1.125 2.717981689453125 1.125 L 2.333981689453125 1.125 Q 2.294981689453125 1.125 2.277731689453125 1.11225 Q 2.260481689453125 1.0995 2.264981689453125 1.0785 Q 2.270981689453125 1.0605 2.296481689453125 1.047 Q 2.318981689453125 1.035 2.333981689453125 1.0185 Q 2.348981689453125 1.002 2.359481689453125 0.966 L 2.492981689453125 0.5325 Q 2.495981689453125 0.525 2.495981689453125 0.5115 Q 2.495981689453125 0.495 2.489231689453125 0.486 Q 2.482481689453125 0.477 2.467481689453125 0.4635 Q 2.452481689453125 0.4515 2.446481689453125 0.4425 Q 2.440481689453125 0.4335 2.444981689453125 0.4185 Q 2.453981689453125 0.384 2.539481689453125 0.35775 Q 2.624981689453125 0.3315 2.717981689453125 0.3315 Q 2.779481689453125 0.3315 2.819981689453125 0.35924999999999996 Q 2.860481689453125 0.387 2.872481689453125 0.43799999999999994 Q 2.944481689453125 0.3315 3.061481689453125 0.3315 Q 3.145481689453125 0.3315 3.195731689453125 0.38249999999999995 M 3.710950927734375 0.36449999999999994 Q 3.751450927734375 0.39749999999999996 3.751450927734375 0.4545 Q 3.751450927734375 0.489 3.740950927734375 0.5205 L 3.602950927734375 0.969 Q 3.5984509277343752 0.987 3.5984509277343752 1.0005 Q 3.5984509277343752 1.02 3.605950927734375 1.03125 Q 3.613450927734375 1.0425 3.626950927734375 1.053 Q 3.637450927734375 1.0635 3.641950927734375 1.07025 Q 3.646450927734375 1.077 3.643450927734375 1.0875 Q 3.635950927734375 1.107 3.613450927734375 1.116 Q 3.590950927734375 1.125 3.544450927734375 1.125 L 3.202450927734375 1.125 Q 3.163450927734375 1.125 3.145450927734375 1.11225 Q 3.127450927734375 1.0995 3.133450927734375 1.0785 Q 3.139450927734375 1.0605 3.164950927734375 1.047 Q 3.187450927734375 1.035 3.202450927734375 1.0185 Q 3.217450927734375 1.002 3.227950927734375 0.966 L 3.358450927734375 0.5325 Q 3.362950927734375 0.519 3.362950927734375 0.51 Q 3.362950927734375 0.49349999999999994 3.355450927734375 0.48375 Q 3.347950927734375 0.474 3.332950927734375 0.4635 Q 3.317950927734375 0.4515 3.311950927734375 0.4425 Q 3.305950927734375 0.4335 3.310450927734375 0.4185 Q 3.319450927734375 0.384 3.404950927734375 0.35775 Q 3.490450927734375 0.3315 3.583450927734375 0.3315 Q 3.670450927734375 0.3315 3.710950927734375 0.36449999999999994 M 3.781450927734375 0.038249999999999895 Q 3.820450927734375 0.07650000000000001 3.820450927734375 0.132 Q 3.820450927734375 0.17099999999999993 3.800200927734375 0.20850000000000002 Q 3.779950927734375 0.246 3.743200927734375 0.26925 Q 3.706450927734375 0.2925 3.661450927734375 0.2925 Q 3.604450927734375 0.2925 3.566200927734375 0.25425 Q 3.5279509277343752 0.21599999999999997 3.526450927734375 0.15900000000000003 Q 3.526450927734375 0.12149999999999994 3.545950927734375 0.08474999999999988 Q 3.565450927734375 0.04800000000000004 3.601450927734375 0.02400000000000002 Q 3.637450927734375 0 3.683950927734375 0 Q 3.742450927734375 0 3.781450927734375 0.038249999999999895 M 4.74524267578125 0.10725000000000007 Q 4.79099267578125 0.12749999999999995 4.82024267578125 0.16274999999999995 Q 4.84949267578125 0.19799999999999995 4.84949267578125 0.23849999999999993 Q 4.84949267578125 0.32699999999999996 4.72949267578125 0.32699999999999996 Q 4.69499267578125 0.32699999999999996 4.67624267578125 0.32175 Q 4.65749267578125 0.3165 4.63199267578125 0.3045 Q 4.62749267578125 0.31499999999999995 4.62749267578125 0.3345 Q 4.62749267578125 0.35849999999999993 4.63574267578125 0.39149999999999996 Q 4.64399267578125 0.4245 4.65599267578125 0.45299999999999996 Q 4.68749267578125 0.49949999999999994 4.68749267578125 0.564 Q 4.68749267578125 0.5925 4.67999267578125 0.633 Q 4.66199267578125 0.711 4.60124267578125 0.7755 Q 4.54049267578125 0.84 4.44524267578125 0.87675 Q 4.34999267578125 0.9135 4.23599267578125 0.9135 Q 4.14899267578125 0.9135 4.07249267578125 0.9015 Q 4.04999267578125 0.921 4.04999267578125 0.9495 Q 4.04999267578125 0.969 4.06799267578125 0.98175 Q 4.08599267578125 0.9944999999999999 4.12799267578125 0.9944999999999999 L 4.35299267578125 0.9944999999999999 Q 4.46849267578125 0.9944999999999999 4.53299267578125 1.0342500000000001 Q 4.59749267578125 1.074 4.59749267578125 1.1475 Q 4.59749267578125 1.1745 4.58849267578125 1.203 Q 4.57049267578125 1.2615 4.50674267578125 1.31175 Q 4.44299267578125 1.362 4.32749267578125 1.3935 Q 4.21199267578125 1.425 4.04699267578125 1.425 Q 3.89999267578125 1.425 3.79799267578125 1.3995 Q 3.69599267578125 1.374 3.64574267578125 1.32975 Q 3.59549267578125 1.2855 3.59549267578125 1.2315 Q 3.59549267578125 1.2195 3.60149267578125 1.1955 Q 3.61499267578125 1.152 3.66224267578125 1.12425 Q 3.70949267578125 1.0965 3.81749267578125 1.0875 Q 3.78149267578125 1.053 3.78149267578125 1.005 Q 3.78149267578125 0.9884999999999999 3.78599267578125 0.9705 Q 3.80999267578125 0.8925 3.92699267578125 0.855 Q 3.81449267578125 0.7935 3.81449267578125 0.675 Q 3.81449267578125 0.642 3.82349267578125 0.606 Q 3.84149267578125 0.528 3.90299267578125 0.46424999999999994 Q 3.96449267578125 0.40049999999999997 4.06049267578125 0.363 Q 4.15649267578125 0.3255 4.2704926757812505 0.3255 Q 4.44899267578125 0.3255 4.55099267578125 0.372 Q 4.52849267578125 0.3375 4.51574267578125 0.29774999999999996 Q 4.50299267578125 0.258 4.50299267578125 0.22499999999999998 Q 4.50299267578125 0.16799999999999993 4.53974267578125 0.12749999999999995 Q 4.57649267578125 0.08699999999999997 4.65149267578125 0.08699999999999997 Q 4.69949267578125 0.08699999999999997 4.74524267578125 0.10725000000000007 M 4.34999267578125 0.5025 Q 4.34999267578125 0.4515 4.30649267578125 0.4515 Q 4.26899267578125 0.4515 4.24124267578125 0.48824999999999996 Q 4.21349267578125 0.525 4.18499267578125 0.6194999999999999 Q 4.16099267578125 0.6975 4.16099267578125 0.738 Q 4.16099267578125 0.7875 4.20299267578125 0.7875 Q 4.24049267578125 0.7875 4.26899267578125 0.75 Q 4.29749267578125 0.7124999999999999 4.32599267578125 0.6194999999999999 Q 4.34999267578125 0.543 4.34999267578125 0.5025 M 4.02749267578125 1.146 Q 3.98549267578125 1.146 3.95099267578125 1.1415 Q 3.93299267578125 1.164 3.93299267578125 1.2015 Q 3.93449267578125 1.239 3.96374267578125 1.2555 Q 3.99299267578125 1.272 4.05449267578125 1.272 Q 4.1294926757812505 1.272 4.1767426757812505 1.2495 Q 4.22399267578125 1.227 4.22399267578125 1.185 Q 4.22399267578125 1.167 4.21049267578125 1.1565 Q 4.19699267578125 1.146 4.17149267578125 1.146 L 4.02749267578125 1.146 M 5.58600732421875 0.9179999999999999 Q 5.58300732421875 0.9299999999999999 5.58300732421875 0.9359999999999999 Q 5.58300732421875 0.9465 5.58825732421875 0.9525 Q 5.59350732421875 0.9585 5.60250732421875 0.9585 Q 5.6205073242187495 0.9585 5.63325732421875 0.94275 Q 5.6460073242187505 0.927 5.65050732421875 0.927 Q 5.65800732421875 0.927 5.66325732421875 0.93675 Q 5.66850732421875 0.9465 5.66850732421875 0.96 Q 5.67000732421875 1.002 5.63850732421875 1.04325 Q 5.60700732421875 1.0845 5.55000732421875 1.1115 Q 5.49300732421875 1.1385 5.42250732421875 1.1385 Q 5.33400732421875 1.1385 5.28150732421875 1.1025 Q 5.22900732421875 1.0665 5.21400732421875 1.008 Q 5.16000732421875 1.068 5.09475732421875 1.09875 Q 5.02950732421875 1.1295 4.96200732421875 1.1295 Q 4.85700732421875 1.1295 4.78575732421875 1.07775 Q 4.71450732421875 1.026 4.71450732421875 0.933 Q 4.71450732421875 0.891 4.72950732421875 0.846 L 4.82550732421875 0.5325 Q 4.83000732421875 0.519 4.83000732421875 0.51 Q 4.83000732421875 0.49349999999999994 4.82250732421875 0.48375 Q 4.81500732421875 0.474 4.80000732421875 0.4635 Q 4.78500732421875 0.4515 4.77900732421875 0.4425 Q 4.77300732421875 0.4335 4.77750732421875 0.4185 Q 4.78650732421875 0.384 4.87200732421875 0.35775 Q 4.95750732421875 0.3315 5.05050732421875 0.3315 Q 5.13750732421875 0.3315 5.17800732421875 0.36449999999999994 Q 5.21850732421875 0.39749999999999996 5.21850732421875 0.4545 Q 5.21850732421875 0.489 5.20800732421875 0.5205 L 5.11350732421875 0.8325 Q 5.10750732421875 0.849 5.10750732421875 0.864 Q 5.10750732421875 0.885 5.11950732421875 0.8955 Q 5.13150732421875 0.906 5.15100732421875 0.906 Q 5.17950732421875 0.906 5.19750732421875 0.8895 Q 5.21550732421875 0.873 5.23350732421875 0.8340000000000001 L 5.32500732421875 0.5325 Q 5.32950732421875 0.519 5.32950732421875 0.51 Q 5.32950732421875 0.49349999999999994 5.32200732421875 0.48375 Q 5.31450732421875 0.474 5.30100732421875 0.4635 Q 5.28600732421875 0.4515 5.28000732421875 0.4425 Q 5.27400732421875 0.4335 5.27850732421875 0.4185 Q 5.28600732421875 0.384 5.37150732421875 0.35775 Q 5.4570073242187505 0.3315 5.55000732421875 0.3315 Q 5.63700732421875 0.3315 5.67825732421875 0.36449999999999994 Q 5.71950732421875 0.39749999999999996 5.71950732421875 0.45299999999999996 Q 5.71950732421875 0.48150000000000004 5.70750732421875 0.5205 L 5.58600732421875 0.9179999999999999 M 6.5084685058593745 0.38475000000000004 Q 6.593968505859375 0.4455 6.593968505859375 0.54 Q 6.593968505859375 0.5685 6.587968505859375 0.5925 Q 6.565468505859375 0.6915 6.462718505859375 0.7342500000000001 Q 6.359968505859375 0.7769999999999999 6.220468505859375 0.7769999999999999 Q 6.149968505859375 0.7769999999999999 6.088468505859375 0.768 Q 6.0869685058593745 0.846 6.130468505859375 0.8775 Q 6.173968505859375 0.909 6.2519685058593755 0.909 Q 6.287968505859375 0.909 6.3209685058593745 0.9007499999999999 Q 6.353968505859375 0.8925 6.404968505859375 0.876 Q 6.446968505859375 0.861 6.4619685058593745 0.861 Q 6.478468505859375 0.861 6.478468505859375 0.8805000000000001 Q 6.479968505859375 0.933 6.4394685058593755 0.99075 Q 6.398968505859375 1.0485 6.319468505859375 1.089 Q 6.239968505859375 1.1295 6.127468505859375 1.1295 Q 5.960968505859375 1.1295 5.854468505859375 1.0455 Q 5.747968505859375 0.9615 5.747968505859375 0.8009999999999999 Q 5.747968505859375 0.756 5.759968505859375 0.696 Q 5.797468505859375 0.5115 5.924218505859375 0.41774999999999995 Q 6.050968505859375 0.32399999999999995 6.232468505859375 0.32399999999999995 Q 6.422968505859375 0.32399999999999995 6.5084685058593745 0.38475000000000004 M 6.115468505859375 0.6795 Q 6.178468505859375 0.6795 6.211468505859375 0.621 Q 6.244468505859375 0.5625 6.242968505859375 0.49049999999999994 Q 6.241468505859375 0.4485 6.218968505859375 0.4485 Q 6.202468505859375 0.4485 6.179968505859375 0.47475 Q 6.157468505859375 0.501 6.135718505859375 0.5535 Q 6.113968505859375 0.606 6.098968505859375 0.6779999999999999 Q 6.104968505859375 0.6795 6.115468505859375 0.6795 M 8.223733154296875 0.13649999999999995 Q 8.240983154296876 0.14700000000000002 8.240983154296876 0.16349999999999998 Q 8.240983154296876 0.17099999999999993 8.236483154296875 0.18299999999999994 Q 8.231983154296875 0.1935 8.223733154296875 0.20174999999999998 Q 8.215483154296875 0.20999999999999996 8.208733154296874 0.21375 Q 8.201983154296876 0.21750000000000003 8.198983154296876 0.22050000000000003 Q 8.174983154296875 0.23399999999999999 8.159983154296874 0.25049999999999994 Q 8.144983154296876 0.267 8.134483154296875 0.3015 L 7.949983154296875 0.948 Q 7.943983154296875 0.9675 7.943983154296875 0.9855 Q 7.943983154296875 1.0035 7.949233154296875 1.014 Q 7.9544831542968755 1.0245 7.964983154296875 1.041 Q 7.966483154296875 1.0425 7.973233154296875 1.05225 Q 7.979983154296875 1.062 7.979983154296875 1.0725 Q 7.979983154296875 1.0755 7.9769831542968745 1.0875 Q 7.969483154296875 1.1085 7.948483154296875 1.11675 Q 7.927483154296875 1.125 7.885483154296875 1.125 L 7.5329831542968755 1.125 Q 7.501483154296875 1.125 7.484233154296875 1.1145 Q 7.466983154296875 1.104 7.466983154296875 1.086 Q 7.466983154296875 1.077 7.471483154296875 1.0665 Q 7.477483154296875 1.0545 7.487983154296875 1.04625 Q 7.498483154296875 1.038 7.508983154296875 1.032 Q 7.5329831542968755 1.0185 7.547983154296875 1.00125 Q 7.562983154296875 0.984 7.573483154296875 0.948 L 7.645483154296875 0.6975 L 7.379983154296875 0.6975 L 7.307983154296875 0.948 Q 7.301983154296875 0.9675 7.301983154296875 0.9855 Q 7.301983154296875 1.0035 7.307233154296875 1.014 Q 7.312483154296875 1.0245 7.322983154296875 1.041 Q 7.324483154296875 1.0425 7.331233154296875 1.05225 Q 7.337983154296875 1.062 7.337983154296875 1.0725 Q 7.337983154296875 1.0755 7.334983154296875 1.0875 Q 7.327483154296875 1.1085 7.306483154296875 1.11675 Q 7.285483154296875 1.125 7.243483154296875 1.125 L 6.890983154296875 1.125 Q 6.859483154296875 1.125 6.842233154296875 1.1145 Q 6.824983154296875 1.104 6.824983154296875 1.086 Q 6.824983154296875 1.077 6.829483154296875 1.0665 Q 6.835483154296875 1.0545 6.845983154296875 1.04625 Q 6.856483154296875 1.038 6.866983154296875 1.032 Q 6.890983154296875 1.0185 6.905983154296875 1.00125 Q 6.920983154296875 0.984 6.931483154296875 0.948 L 7.115983154296875 0.3015 Q 7.121983154296875 0.28200000000000003 7.121983154296875 0.264 Q 7.121983154296875 0.24749999999999994 7.116733154296875 0.23624999999999996 Q 7.111483154296875 0.22499999999999998 7.102483154296875 0.20999999999999996 Q 7.096483154296875 0.2025 7.091983154296875 0.19425000000000003 Q 7.087483154296875 0.18599999999999994 7.087483154296875 0.17699999999999994 Q 7.087483154296875 0.17399999999999993 7.090483154296875 0.16200000000000003 Q 7.096483154296875 0.14249999999999996 7.117483154296875 0.13424999999999998 Q 7.138483154296875 0.126 7.180483154296875 0.126 L 7.5329831542968755 0.126 Q 7.564483154296875 0.126 7.581733154296875 0.13649999999999995 Q 7.598983154296875 0.14700000000000002 7.598983154296875 0.16349999999999998 Q 7.598983154296875 0.17099999999999993 7.594483154296875 0.18299999999999994 Q 7.589983154296875 0.1935 7.581733154296875 0.20174999999999998 Q 7.573483154296875 0.20999999999999996 7.566733154296875 0.21375 Q 7.559983154296875 0.21750000000000003 7.556983154296875 0.22050000000000003 Q 7.5329831542968755 0.23399999999999999 7.517983154296875 0.25049999999999994 Q 7.502983154296875 0.267 7.492483154296875 0.3015 L 7.421983154296875 0.5475 L 7.687483154296875 0.5475 L 7.757983154296875 0.3015 Q 7.763983154296875 0.28200000000000003 7.763983154296875 0.264 Q 7.763983154296875 0.24749999999999994 7.758733154296875 0.23624999999999996 Q 7.753483154296875 0.22499999999999998 7.744483154296875 0.20999999999999996 Q 7.738483154296875 0.2025 7.733983154296875 0.19425000000000003 Q 7.729483154296875 0.18599999999999994 7.729483154296875 0.17699999999999994 Q 7.729483154296875 0.17399999999999993 7.732483154296875 0.16200000000000003 Q 7.738483154296875 0.14249999999999996 7.759483154296875 0.13424999999999998 Q 7.780483154296875 0.126 7.822483154296875 0.126 L 8.174983154296875 0.126 Q 8.206483154296874 0.126 8.223733154296875 0.13649999999999995 M 8.926459716796876 0.39525 Q 9.029959716796874 0.45899999999999996 9.029959716796874 0.5895 Q 9.029959716796874 0.639 9.011959716796875 0.702 L 8.950459716796875 0.909 Q 8.948959716796875 0.915 8.948959716796875 0.9239999999999999 Q 8.948959716796875 0.948 8.968459716796875 0.948 Q 8.986459716796874 0.948 8.999209716796875 0.93225 Q 9.011959716796875 0.9165 9.016459716796875 0.9165 Q 9.023959716796876 0.9165 9.029209716796874 0.927 Q 9.034459716796874 0.9375 9.034459716796874 0.951 Q 9.035959716796874 0.9915 9.003709716796875 1.0335 Q 8.971459716796875 1.0755 8.917459716796875 1.1025 Q 8.863459716796875 1.1295 8.798959716796874 1.1295 Q 8.720959716796875 1.1295 8.665459716796875 1.101 Q 8.609959716796874 1.0725 8.588959716796875 1.017 Q 8.543959716796875 1.071 8.482459716796875 1.10025 Q 8.420959716796874 1.1295 8.350459716796875 1.1295 Q 8.270959716796876 1.1295 8.216959716796875 1.09875 Q 8.162959716796875 1.068 8.136709716796876 1.01925 Q 8.110459716796875 0.9705 8.110459716796875 0.9165 Q 8.110459716796875 0.8925 8.114959716796875 0.87 Q 8.138959716796874 0.7665 8.219209716796875 0.714 Q 8.299459716796875 0.6615 8.410459716796876 0.6615 Q 8.534959716796875 0.6615 8.654959716796874 0.7005 L 8.692459716796876 0.6015 Q 8.711959716796875 0.5385 8.711959716796875 0.504 Q 8.710459716796874 0.46799999999999997 8.687959716796875 0.44999999999999996 Q 8.665459716796875 0.43199999999999994 8.618959716796875 0.43199999999999994 Q 8.627959716796875 0.45599999999999996 8.627959716796875 0.48150000000000004 Q 8.627959716796875 0.537 8.585959716796875 0.5775 Q 8.543959716796875 0.618 8.465959716796876 0.618 Q 8.392459716796875 0.618 8.351209716796875 0.58575 Q 8.309959716796875 0.5535 8.309959716796875 0.5055 Q 8.309959716796875 0.4305 8.393959716796875 0.381 Q 8.477959716796875 0.3315 8.650459716796876 0.3315 Q 8.822959716796875 0.3315 8.926459716796876 0.39525 M 8.498209716796875 0.8182499999999999 Q 8.471959716796874 0.8505 8.471959716796874 0.888 Q 8.471959716796874 0.912 8.483209716796875 0.927 Q 8.494459716796875 0.942 8.515459716796874 0.942 Q 8.534959716796875 0.942 8.558209716796876 0.92625 Q 8.581459716796875 0.9105 8.591959716796875 0.879 L 8.623459716796875 0.7905 Q 8.597959716796876 0.786 8.566459716796874 0.786 Q 8.524459716796875 0.786 8.498209716796875 0.8182499999999999 M 10.024447265625 0.9179999999999999 Q 10.021447265625 0.9239999999999999 10.021447265625 0.9359999999999999 Q 10.021447265625 0.9465 10.026697265625 0.9525 Q 10.031947265625 0.9585 10.040947265625 0.9585 Q 10.058947265625 0.9585 10.071697265625 0.94275 Q 10.084447265625 0.927 10.088947265625 0.927 Q 10.096447265625 0.927 10.100947265625 0.93675 Q 10.105447265625 0.9465 10.105447265625 0.96 Q 10.106947265625 1.0035 10.076947265625 1.04475 Q 10.046947265625 1.086 9.989197265625 1.11225 Q 9.931447265625 1.1385 9.850447265625 1.1385 Q 9.751447265625 1.1385 9.692947265625 1.09275 Q 9.634447265624999 1.047 9.632947265625 0.9705 Q 9.632947265625 0.915 9.659947265625 0.846 L 9.742447265625 0.63 Q 9.749947265625 0.6105 9.749947265625 0.5985 Q 9.749947265625 0.579 9.737197265625 0.56775 Q 9.724447265625 0.5565 9.706447265625 0.5565 Q 9.673447265625 0.5565 9.643447265625 0.5872499999999999 Q 9.613447265625 0.618 9.599947265625 0.663 L 9.506947265625 0.969 Q 9.500947265625 0.9855 9.500947265625 1.0005 Q 9.500947265625 1.0185 9.508447265625 1.02975 Q 9.515947265625 1.041 9.529447265625 1.053 Q 9.539947265625 1.062 9.544447265625 1.0695 Q 9.548947265625 1.077 9.545947265625 1.0875 Q 9.539947265625 1.107 9.517447265625 1.116 Q 9.494947265625001 1.125 9.446947265625 1.125 L 9.104947265625 1.125 Q 9.065947265625 1.125 9.048697265625 1.11225 Q 9.031447265625 1.0995 9.035947265625 1.0785 Q 9.041947265625 1.0605 9.067447265625 1.047 Q 9.089947265625 1.035 9.104947265625 1.0185 Q 9.119947265625 1.002 9.130447265625 0.966 L 9.263947265625 0.5325 Q 9.266947265625 0.525 9.266947265625 0.5115 Q 9.266947265625 0.495 9.260197265625 0.486 Q 9.253447265625 0.477 9.238447265625 0.4635 Q 9.223447265625 0.4515 9.217447265625 0.4425 Q 9.211447265625 0.4335 9.215947265625 0.4185 Q 9.224947265625 0.384 9.310447265625 0.35775 Q 9.395947265625 0.3315 9.488947265625 0.3315 Q 9.563947265625 0.3315 9.607447265625 0.37275 Q 9.650947265625 0.41400000000000003 9.646447265625 0.48749999999999993 Q 9.707947265625 0.399 9.776947265625001 0.36524999999999996 Q 9.845947265625 0.3315 9.926947265625 0.3315 Q 10.018447265625 0.3315 10.074697265625 0.387 Q 10.130947265625 0.4425 10.130947265625 0.531 Q 10.130947265625 0.5775 10.115947265625 0.6224999999999999 L 10.024447265625 0.9179999999999999 M 11.005452392578125 0.9255 Q 11.005452392578125 0.9359999999999999 11.011452392578125 0.942 Q 11.017452392578125 0.948 11.026452392578125 0.948 Q 11.044452392578124 0.948 11.057202392578125 0.93225 Q 11.069952392578125 0.9165 11.074452392578126 0.9165 Q 11.081952392578126 0.9165 11.086452392578124 0.927 Q 11.090952392578124 0.9375 11.090952392578124 0.951 Q 11.092452392578124 0.9915 11.060202392578125 1.0335 Q 11.027952392578126 1.0755 10.973952392578125 1.1025 Q 10.919952392578125 1.1295 10.856952392578124 1.1295 Q 10.781952392578125 1.1295 10.726452392578125 1.101 Q 10.670952392578124 1.0725 10.649952392578125 1.026 Q 10.609452392578126 1.0785 10.556952392578125 1.104 Q 10.504452392578125 1.1295 10.445952392578125 1.1295 Q 10.376952392578126 1.1295 10.317702392578125 1.095 Q 10.258452392578125 1.0605 10.223202392578125 0.99675 Q 10.187952392578126 0.933 10.187952392578126 0.852 Q 10.187952392578126 0.7155 10.239702392578126 0.59475 Q 10.291452392578124 0.474 10.384452392578124 0.39974999999999994 Q 10.477452392578124 0.3255 10.595952392578125 0.3255 Q 10.660452392578126 0.3255 10.706202392578126 0.3405 Q 10.751952392578126 0.35550000000000004 10.789452392578125 0.38549999999999995 L 10.840452392578126 0.21750000000000003 Q 10.844952392578126 0.20399999999999996 10.844952392578126 0.19499999999999995 Q 10.844952392578126 0.1785 10.836702392578125 0.16799999999999993 Q 10.828452392578125 0.15749999999999997 10.814952392578125 0.14700000000000002 Q 10.799952392578126 0.135 10.793202392578126 0.126 Q 10.786452392578125 0.11699999999999999 10.790952392578125 0.10199999999999987 Q 10.799952392578126 0.0674999999999999 10.885452392578125 0.04200000000000004 Q 10.970952392578125 0.01649999999999996 11.063952392578125 0.01649999999999996 Q 11.150952392578125 0.01649999999999996 11.192202392578125 0.04949999999999988 Q 11.233452392578124 0.08250000000000002 11.233452392578124 0.13949999999999996 Q 11.233452392578124 0.1725 11.222952392578126 0.20399999999999996 L 11.008452392578125 0.909 Q 11.005452392578125 0.921 11.005452392578125 0.9255 M 10.705452392578126 0.4665 Q 10.661952392578126 0.4665 10.619952392578124 0.531 Q 10.577952392578124 0.5955 10.552452392578125 0.687 Q 10.526952392578124 0.7785 10.528452392578124 0.852 Q 10.528452392578124 0.9345 10.582452392578125 0.9345 Q 10.601952392578125 0.9345 10.615452392578124 0.91875 Q 10.628952392578125 0.903 10.640952392578125 0.867 L 10.757952392578124 0.48749999999999993 Q 10.733952392578125 0.4665 10.705452392578126 0.4665 M 12.053246337890625 0.38475000000000004 Q 12.092996337890625 0.43799999999999994 12.092996337890625 0.5295 Q 12.092996337890625 0.609 12.064496337890626 0.7005 Q 12.008996337890625 0.885 11.886746337890624 1.0485 Q 11.764496337890625 1.212 11.606246337890624 1.311 Q 11.447996337890626 1.4100000000000001 11.290496337890625 1.4100000000000001 Q 11.212496337890625 1.4100000000000001 11.156246337890625 1.383 Q 11.099996337890625 1.356 11.070746337890625 1.311 Q 11.041496337890624 1.266 11.041496337890624 1.215 Q 11.041496337890624 1.1925 11.048996337890625 1.1655 Q 11.062496337890625 1.1235 11.093996337890625 1.101 Q 11.125496337890626 1.0785 11.168996337890626 1.0785 Q 11.237996337890625 1.0785 11.282246337890625 1.12575 Q 11.326496337890624 1.173 11.338496337890625 1.2555 Q 11.434496337890625 1.251 11.515496337890625 1.173 Q 11.438996337890625 1.1595 11.402246337890626 1.12125 Q 11.365496337890624 1.083 11.351996337890625 1.002 L 11.291996337890625 0.6345000000000001 Q 11.287496337890625 0.606 11.279246337890624 0.59475 Q 11.270996337890624 0.5835 11.257496337890625 0.5835 Q 11.246996337890625 0.5835 11.232746337890624 0.594 Q 11.218496337890626 0.6045 11.212496337890625 0.6045 Q 11.200496337890625 0.6045 11.200496337890625 0.579 Q 11.200496337890625 0.5579999999999999 11.207996337890625 0.534 Q 11.234996337890625 0.4485 11.308496337890626 0.38925 Q 11.381996337890625 0.32999999999999996 11.479496337890625 0.32999999999999996 Q 11.575496337890625 0.32999999999999996 11.621246337890625 0.387 Q 11.666996337890625 0.44399999999999995 11.680496337890625 0.5625 L 11.725496337890625 0.8925 Q 11.729996337890626 0.9299999999999999 11.752496337890625 0.9299999999999999 Q 11.779496337890626 0.9299999999999999 11.815496337890625 0.88125 Q 11.851496337890625 0.8325 11.885996337890624 0.7424999999999999 Q 11.840996337890624 0.702 11.816996337890625 0.6495 Q 11.792996337890624 0.597 11.792996337890624 0.537 Q 11.792996337890624 0.49049999999999994 11.804996337890625 0.45299999999999996 Q 11.822996337890626 0.393 11.861246337890625 0.36224999999999996 Q 11.899496337890625 0.3315 11.947496337890625 0.3315 Q 12.013496337890626 0.3315 12.053246337890625 0.38475000000000004 M 13.508989013671876 0.9179999999999999 Q 13.505989013671876 0.9239999999999999 13.505989013671876 0.9359999999999999 Q 13.505989013671876 0.9465 13.511239013671876 0.9525 Q 13.516489013671874 0.9585 13.525489013671875 0.9585 Q 13.543489013671875 0.9585 13.556239013671876 0.94275 Q 13.568989013671874 0.927 13.573489013671875 0.927 Q 13.580989013671875 0.927 13.585489013671875 0.93675 Q 13.589989013671875 0.9465 13.589989013671875 0.96 Q 13.591489013671875 1.0035 13.561489013671874 1.04475 Q 13.531489013671875 1.086 13.473739013671874 1.11225 Q 13.415989013671876 1.1385 13.334989013671875 1.1385 Q 13.235989013671874 1.1385 13.177489013671876 1.09275 Q 13.118989013671875 1.047 13.117489013671875 0.9705 Q 13.117489013671875 0.915 13.144489013671874 0.846 L 13.226989013671876 0.63 Q 13.234489013671876 0.6105 13.234489013671876 0.5985 Q 13.234489013671876 0.579 13.221739013671876 0.56775 Q 13.208989013671875 0.5565 13.190989013671874 0.5565 Q 13.165489013671875 0.5565 13.138489013671876 0.579 Q 13.111489013671875 0.6015 13.090489013671874 0.6495 L 13.007989013671875 0.9179999999999999 Q 13.004989013671874 0.9239999999999999 13.004989013671874 0.9359999999999999 Q 13.004989013671874 0.9465 13.010239013671875 0.9525 Q 13.015489013671875 0.9585 13.024489013671875 0.9585 Q 13.042489013671876 0.9585 13.055239013671875 0.94275 Q 13.067989013671875 0.927 13.072489013671875 0.927 Q 13.079989013671875 0.927 13.084489013671876 0.93675 Q 13.088989013671874 0.9465 13.088989013671874 0.96 Q 13.090489013671874 1.0035 13.060489013671875 1.04475 Q 13.030489013671875 1.086 12.972739013671875 1.11225 Q 12.914989013671875 1.1385 12.833989013671875 1.1385 Q 12.734989013671875 1.1385 12.676489013671874 1.09275 Q 12.617989013671876 1.047 12.616489013671876 0.9705 Q 12.616489013671876 0.915 12.643489013671875 0.846 L 12.725989013671875 0.63 Q 12.733489013671875 0.6105 12.733489013671875 0.5985 Q 12.733489013671875 0.579 12.720739013671874 0.56775 Q 12.707989013671876 0.5565 12.689989013671875 0.5565 Q 12.664489013671876 0.5565 12.637489013671875 0.57825 Q 12.610489013671875 0.6 12.592489013671875 0.6479999999999999 L 12.493489013671875 0.969 Q 12.487489013671874 0.9855 12.487489013671874 1.0005 Q 12.487489013671874 1.0185 12.494989013671875 1.02975 Q 12.502489013671875 1.041 12.515989013671875 1.053 Q 12.526489013671876 1.062 12.530989013671874 1.0695 Q 12.535489013671874 1.077 12.532489013671874 1.0875 Q 12.526489013671876 1.107 12.503989013671875 1.116 Q 12.481489013671876 1.125 12.433489013671876 1.125 L 12.091489013671875 1.125 Q 12.052489013671876 1.125 12.035239013671875 1.11225 Q 12.017989013671874 1.0995 12.022489013671875 1.0785 Q 12.028489013671875 1.0605 12.053989013671876 1.047 Q 12.076489013671875 1.035 12.091489013671875 1.0185 Q 12.106489013671874 1.002 12.116989013671875 0.966 L 12.250489013671874 0.5325 Q 12.253489013671874 0.525 12.253489013671874 0.5115 Q 12.253489013671874 0.495 12.246739013671874 0.486 Q 12.239989013671876 0.477 12.224989013671875 0.4635 Q 12.209989013671875 0.4515 12.203989013671874 0.4425 Q 12.197989013671876 0.4335 12.202489013671874 0.4185 Q 12.211489013671875 0.384 12.296989013671874 0.35775 Q 12.382489013671876 0.3315 12.475489013671876 0.3315 Q 12.548989013671875 0.3315 12.591739013671875 0.372 Q 12.634489013671875 0.4125 12.632989013671875 0.483 Q 12.694489013671875 0.39749999999999996 12.762739013671876 0.36449999999999994 Q 12.830989013671875 0.3315 12.910489013671874 0.3315 Q 12.997489013671874 0.3315 13.052239013671874 0.38175000000000003 Q 13.106989013671875 0.43199999999999994 13.112989013671875 0.513 Q 13.177489013671876 0.41100000000000003 13.250989013671875 0.37124999999999997 Q 13.324489013671876 0.3315 13.411489013671876 0.3315 Q 13.502989013671876 0.3315 13.559239013671874 0.387 Q 13.615489013671874 0.4425 13.615489013671874 0.531 Q 13.615489013671874 0.5775 13.600489013671876 0.6224999999999999 L 13.508989013671876 0.9179999999999999 M 14.465949462890626 0.39525 Q 14.569449462890624 0.45899999999999996 14.569449462890624 0.5895 Q 14.569449462890624 0.639 14.551449462890625 0.702 L 14.489949462890625 0.909 Q 14.488449462890625 0.915 14.488449462890625 0.9239999999999999 Q 14.488449462890625 0.948 14.507949462890625 0.948 Q 14.525949462890624 0.948 14.538699462890625 0.93225 Q 14.551449462890625 0.9165 14.555949462890625 0.9165 Q 14.563449462890626 0.9165 14.568699462890624 0.927 Q 14.573949462890624 0.9375 14.573949462890624 0.951 Q 14.575449462890624 0.9915 14.543199462890625 1.0335 Q 14.510949462890625 1.0755 14.456949462890625 1.1025 Q 14.402949462890625 1.1295 14.338449462890624 1.1295 Q 14.260449462890625 1.1295 14.204949462890625 1.101 Q 14.149449462890624 1.0725 14.128449462890625 1.017 Q 14.083449462890625 1.071 14.021949462890625 1.10025 Q 13.960449462890624 1.1295 13.889949462890625 1.1295 Q 13.810449462890626 1.1295 13.756449462890625 1.09875 Q 13.702449462890625 1.068 13.676199462890626 1.01925 Q 13.649949462890625 0.9705 13.649949462890625 0.9165 Q 13.649949462890625 0.8925 13.654449462890625 0.87 Q 13.678449462890624 0.7665 13.758699462890625 0.714 Q 13.838949462890625 0.6615 13.949949462890626 0.6615 Q 14.074449462890625 0.6615 14.194449462890624 0.7005 L 14.231949462890626 0.6015 Q 14.251449462890625 0.5385 14.251449462890625 0.504 Q 14.249949462890624 0.46799999999999997 14.227449462890625 0.44999999999999996 Q 14.204949462890625 0.43199999999999994 14.158449462890625 0.43199999999999994 Q 14.167449462890625 0.45599999999999996 14.167449462890625 0.48150000000000004 Q 14.167449462890625 0.537 14.125449462890625 0.5775 Q 14.083449462890625 0.618 14.005449462890626 0.618 Q 13.931949462890625 0.618 13.890699462890625 0.58575 Q 13.849449462890625 0.5535 13.849449462890625 0.5055 Q 13.849449462890625 0.4305 13.933449462890625 0.381 Q 14.017449462890625 0.3315 14.189949462890626 0.3315 Q 14.362449462890625 0.3315 14.465949462890626 0.39525 M 14.037699462890625 0.8182499999999999 Q 14.011449462890624 0.8505 14.011449462890624 0.888 Q 14.011449462890624 0.912 14.022699462890625 0.927 Q 14.033949462890625 0.942 14.054949462890624 0.942 Q 14.074449462890625 0.942 14.097699462890626 0.92625 Q 14.120949462890625 0.9105 14.131449462890625 0.879 L 14.162949462890625 0.7905 Q 14.137449462890626 0.786 14.105949462890624 0.786 Q 14.063949462890625 0.786 14.037699462890625 0.8182499999999999 M 15.56393701171875 0.9179999999999999 Q 15.56093701171875 0.9239999999999999 15.56093701171875 0.9359999999999999 Q 15.56093701171875 0.9465 15.56618701171875 0.9525 Q 15.57143701171875 0.9585 15.58043701171875 0.9585 Q 15.59843701171875 0.9585 15.61118701171875 0.94275 Q 15.62393701171875 0.927 15.62843701171875 0.927 Q 15.63593701171875 0.927 15.64043701171875 0.93675 Q 15.64493701171875 0.9465 15.64493701171875 0.96 Q 15.64643701171875 1.0035 15.61643701171875 1.04475 Q 15.58643701171875 1.086 15.52868701171875 1.11225 Q 15.47093701171875 1.1385 15.38993701171875 1.1385 Q 15.29093701171875 1.1385 15.23243701171875 1.09275 Q 15.173937011718749 1.047 15.17243701171875 0.9705 Q 15.17243701171875 0.915 15.19943701171875 0.846 L 15.28193701171875 0.63 Q 15.28943701171875 0.6105 15.28943701171875 0.5985 Q 15.28943701171875 0.579 15.27668701171875 0.56775 Q 15.26393701171875 0.5565 15.24593701171875 0.5565 Q 15.21293701171875 0.5565 15.18293701171875 0.5872499999999999 Q 15.15293701171875 0.618 15.13943701171875 0.663 L 15.04643701171875 0.969 Q 15.04043701171875 0.9855 15.04043701171875 1.0005 Q 15.04043701171875 1.0185 15.04793701171875 1.02975 Q 15.05543701171875 1.041 15.06893701171875 1.053 Q 15.07943701171875 1.062 15.08393701171875 1.0695 Q 15.08843701171875 1.077 15.08543701171875 1.0875 Q 15.07943701171875 1.107 15.05693701171875 1.116 Q 15.034437011718751 1.125 14.98643701171875 1.125 L 14.64443701171875 1.125 Q 14.60543701171875 1.125 14.58818701171875 1.11225 Q 14.57093701171875 1.0995 14.57543701171875 1.0785 Q 14.58143701171875 1.0605 14.60693701171875 1.047 Q 14.62943701171875 1.035 14.64443701171875 1.0185 Q 14.65943701171875 1.002 14.66993701171875 0.966 L 14.80343701171875 0.5325 Q 14.80643701171875 0.525 14.80643701171875 0.5115 Q 14.80643701171875 0.495 14.79968701171875 0.486 Q 14.79293701171875 0.477 14.77793701171875 0.4635 Q 14.76293701171875 0.4515 14.75693701171875 0.4425 Q 14.75093701171875 0.4335 14.75543701171875 0.4185 Q 14.76443701171875 0.384 14.84993701171875 0.35775 Q 14.93543701171875 0.3315 15.02843701171875 0.3315 Q 15.10343701171875 0.3315 15.14693701171875 0.37275 Q 15.19043701171875 0.41400000000000003 15.18593701171875 0.48749999999999993 Q 15.24743701171875 0.399 15.316437011718751 0.36524999999999996 Q 15.38543701171875 0.3315 15.46643701171875 0.3315 Q 15.55793701171875 0.3315 15.61418701171875 0.387 Q 15.67043701171875 0.4425 15.67043701171875 0.531 Q 15.67043701171875 0.5775 15.65543701171875 0.6224999999999999 L 15.56393701171875 0.9179999999999999" fill="#000000" fill-rule="nonzero"></path></g><g><path d=" M 0.02775 2.18295 Q 0.02925 2.2152000000000003 0.044625 2.24145 Q 0.06 2.2677 0.08662500000000001 2.2860750000000003 Q 0.11325 2.30445 0.14925 2.314575 Q 0.18525 2.3247 0.228 2.3247 Q 0.2715 2.3247 0.306375 2.3142 Q 0.34125 2.3037 0.366 2.2842000000000002 Q 0.39075 2.2647 0.40425 2.23695 Q 0.41775 2.2092 0.41775 2.17545 Q 0.41775 2.12895 0.3945 2.099325 Q 0.37125 2.0697 0.336375 2.0498250000000002 Q 0.3015 2.02995 0.260625 2.01645 Q 0.21975 2.0029500000000002 0.184875 1.98795 Q 0.15 1.97295 0.12675 1.9534500000000001 Q 0.10350000000000001 1.93395 0.10350000000000001 1.9017 Q 0.10350000000000001 1.8837000000000002 0.111375 1.86795 Q 0.11925000000000001 1.8522 0.134625 1.840575 Q 0.15 1.82895 0.17250000000000001 1.821825 Q 0.195 1.8147000000000002 0.22425 1.8147000000000002 Q 0.273 1.8147000000000002 0.307125 1.835325 Q 0.34125 1.85595 0.34725 1.9002000000000001 L 0.39825 1.9002000000000001 Q 0.39375 1.8724500000000002 0.378 1.8503250000000002 Q 0.36225 1.8282 0.33825 1.8128250000000001 Q 0.31425000000000003 1.79745 0.283875 1.7895750000000001 Q 0.2535 1.7817 0.2205 1.7817 Q 0.186 1.7817 0.154875 1.7907000000000002 Q 0.12375 1.7997 0.100125 1.81695 Q 0.0765 1.8342 0.062625 1.8604500000000002 Q 0.04875 1.8867 0.04875 1.9204500000000002 Q 0.04875 1.9647000000000001 0.07125000000000001 1.9917 Q 0.09375 2.0187 0.12787500000000002 2.0367 Q 0.162 2.0547 0.20175 2.06745 Q 0.2415 2.0802 0.275625 2.096325 Q 0.30975 2.11245 0.33225 2.1357 Q 0.35475 2.15895 0.35475 2.19795 Q 0.35475 2.2467 0.319125 2.2692 Q 0.28350000000000003 2.2917 0.22425 2.2917 Q 0.177 2.2917 0.1485 2.279325 Q 0.12 2.26695 0.105 2.2497000000000003 Q 0.09 2.23245 0.08475 2.2140750000000002 Q 0.0795 2.1957 0.07875 2.18295 L 0.02775 2.18295 M 0.862875 2.1447000000000003 L 0.862875 2.12895 Q 0.862875 2.0787 0.848625 2.04195 Q 0.8343749999999999 2.0052000000000003 0.8099999999999999 1.9812 Q 0.785625 1.9572 0.7533749999999999 1.9452 Q 0.721125 1.9332 0.685125 1.9332 Q 0.6468749999999999 1.9332 0.614625 1.946325 Q 0.582375 1.9594500000000001 0.558375 1.984575 Q 0.5343749999999999 2.0097 0.520875 2.045325 Q 0.5073749999999999 2.08095 0.5073749999999999 2.12595 Q 0.5073749999999999 2.16345 0.5189999999999999 2.199075 Q 0.5306249999999999 2.2347 0.5542499999999999 2.2628250000000003 Q 0.5778749999999999 2.29095 0.61425 2.3078250000000002 Q 0.6506249999999999 2.3247 0.7001249999999999 2.3247 Q 0.7481249999999999 2.3247 0.7886249999999999 2.3078250000000002 Q 0.8291249999999999 2.29095 0.8591249999999999 2.25945 L 0.8351249999999999 2.23545 Q 0.819375 2.2489500000000002 0.8054999999999999 2.2602 Q 0.7916249999999999 2.27145 0.7773749999999999 2.27895 Q 0.7631249999999999 2.28645 0.7477499999999999 2.290575 Q 0.732375 2.2947 0.713625 2.2947 Q 0.6926249999999999 2.2947 0.6689999999999999 2.288325 Q 0.6453749999999999 2.28195 0.6251249999999999 2.26545 Q 0.6048749999999999 2.2489500000000002 0.591375 2.2197 Q 0.5778749999999999 2.1904500000000002 0.5778749999999999 2.1447000000000003 L 0.862875 2.1447000000000003 M 0.5778749999999999 2.1147 Q 0.5778749999999999 2.0847 0.5842499999999999 2.056575 Q 0.590625 2.0284500000000003 0.6037499999999999 2.0067 Q 0.616875 1.98495 0.6371249999999999 1.9718250000000002 Q 0.6573749999999999 1.9587 0.685125 1.9587 Q 0.738375 1.9587 0.768 2.000325 Q 0.7976249999999999 2.04195 0.7976249999999999 2.1147 L 0.5778749999999999 2.1147 M 0.9614809570312499 1.9407 L 0.9614809570312499 2.3157 L 1.02523095703125 2.3157 L 1.02523095703125 2.0892 Q 1.02523095703125 2.05845 1.03235595703125 2.037075 Q 1.03948095703125 2.0157000000000003 1.05073095703125 2.0022 Q 1.06198095703125 1.9887000000000001 1.0754809570312498 1.9827000000000001 Q 1.0889809570312499 1.9767000000000001 1.10173095703125 1.9767000000000001 Q 1.11898095703125 1.9767000000000001 1.1336059570312498 1.98795 Q 1.1482309570312499 1.9992 1.15498095703125 2.00895 L 1.18048095703125 1.96245 Q 1.1737309570312497 1.9534500000000001 1.1643559570312498 1.9474500000000001 Q 1.15498095703125 1.9414500000000001 1.1456059570312498 1.938075 Q 1.1362309570312499 1.9347 1.1283559570312498 1.933575 Q 1.12048095703125 1.93245 1.1167309570312498 1.93245 Q 1.08523095703125 1.93245 1.0642309570312498 1.9497 Q 1.04323095703125 1.9669500000000002 1.0297309570312498 2.0007 L 1.02523095703125 2.0007 L 1.02523095703125 1.9407 L 0.9614809570312499 1.9407 M 1.2041202392578123 1.9407 L 1.3601202392578124 2.3157 L 1.4051202392578124 2.3157 L 1.5566202392578123 1.9407 L 1.5213702392578123 1.9407 L 1.3998702392578124 2.24145 L 1.3953702392578125 2.24145 L 1.2701202392578124 1.9407 L 1.2041202392578123 1.9407 M 1.6567525634765623 1.9407 L 1.6567525634765623 2.3157 L 1.7205025634765623 2.3157 L 1.7205025634765623 1.9407 L 1.6567525634765623 1.9407 M 1.6477525634765622 1.8222 Q 1.6477525634765622 1.8387 1.6597525634765622 1.8507 Q 1.6717525634765622 1.8627 1.6882525634765622 1.8627 Q 1.7047525634765623 1.8627 1.7167525634765624 1.8507 Q 1.7287525634765621 1.8387 1.7287525634765621 1.8222 Q 1.7287525634765621 1.8057 1.7167525634765624 1.7937 Q 1.7047525634765623 1.7817 1.6882525634765622 1.7817 Q 1.6717525634765622 1.7817 1.6597525634765622 1.7937 Q 1.6477525634765622 1.8057 1.6477525634765622 1.8222 M 2.0531151123046874 2.2857000000000003 Q 2.026115112304687 2.2857000000000003 2.000990112304687 2.27745 Q 1.9758651123046873 2.2692 1.9563651123046872 2.2508250000000003 Q 1.9368651123046874 2.23245 1.9252401123046872 2.2020750000000002 Q 1.9136151123046872 2.1717 1.9136151123046872 2.12745 Q 1.9136151123046872 2.0817 1.9263651123046872 2.0498250000000002 Q 1.9391151123046872 2.01795 1.9582401123046873 1.998825 Q 1.9773651123046874 1.9797 2.000615112304687 1.9710750000000001 Q 2.023865112304687 1.96245 2.044865112304687 1.96245 Q 2.0793651123046875 1.96245 2.104865112304687 1.98045 Q 2.130365112304687 1.99845 2.138615112304687 2.0247 L 2.1903651123046872 2.0247 Q 2.1828651123046874 1.9977 2.166365112304687 1.980075 Q 2.1498651123046875 1.96245 2.128490112304687 1.951575 Q 2.107115112304687 1.9407 2.082740112304687 1.9365750000000002 Q 2.058365112304687 1.93245 2.035865112304687 1.93245 Q 1.9886151123046873 1.93245 1.9526151123046873 1.9478250000000001 Q 1.9166151123046873 1.9632 1.8918651123046872 1.9894500000000002 Q 1.8671151123046872 2.0157000000000003 1.8547401123046874 2.0509500000000003 Q 1.8423651123046874 2.0862000000000003 1.8423651123046874 2.12595 Q 1.8423651123046874 2.1679500000000003 1.8558651123046872 2.204325 Q 1.8693651123046873 2.2407 1.8944901123046873 2.267325 Q 1.9196151123046872 2.29395 1.9548651123046872 2.3093250000000003 Q 1.9901151123046872 2.3247 2.034365112304687 2.3247 Q 2.083865112304687 2.3247 2.1209901123046873 2.3082000000000003 Q 2.1581151123046873 2.2917 2.1836151123046874 2.2722 L 2.161865112304687 2.2437 Q 2.1356151123046874 2.26545 2.1097401123046873 2.275575 Q 2.083865112304687 2.2857000000000003 2.0531151123046874 2.2857000000000003 M 2.606994873046875 2.1447000000000003 L 2.606994873046875 2.12895 Q 2.606994873046875 2.0787 2.592744873046875 2.04195 Q 2.578494873046875 2.0052000000000003 2.554119873046875 1.9812 Q 2.529744873046875 1.9572 2.497494873046875 1.9452 Q 2.465244873046875 1.9332 2.429244873046875 1.9332 Q 2.390994873046875 1.9332 2.358744873046875 1.946325 Q 2.3264948730468746 1.9594500000000001 2.3024948730468746 1.984575 Q 2.278494873046875 2.0097 2.264994873046875 2.045325 Q 2.251494873046875 2.08095 2.251494873046875 2.12595 Q 2.251494873046875 2.16345 2.263119873046875 2.199075 Q 2.274744873046875 2.2347 2.298369873046875 2.2628250000000003 Q 2.321994873046875 2.29095 2.358369873046875 2.3078250000000002 Q 2.394744873046875 2.3247 2.4442448730468747 2.3247 Q 2.4922448730468747 2.3247 2.532744873046875 2.3078250000000002 Q 2.5732448730468747 2.29095 2.603244873046875 2.25945 L 2.579244873046875 2.23545 Q 2.5634948730468747 2.2489500000000002 2.5496198730468747 2.2602 Q 2.535744873046875 2.27145 2.521494873046875 2.27895 Q 2.507244873046875 2.28645 2.4918698730468747 2.290575 Q 2.476494873046875 2.2947 2.4577448730468747 2.2947 Q 2.436744873046875 2.2947 2.413119873046875 2.288325 Q 2.389494873046875 2.28195 2.369244873046875 2.26545 Q 2.348994873046875 2.2489500000000002 2.335494873046875 2.2197 Q 2.321994873046875 2.1904500000000002 2.321994873046875 2.1447000000000003 L 2.606994873046875 2.1447000000000003 M 2.321994873046875 2.1147 Q 2.321994873046875 2.0847 2.3283698730468747 2.056575 Q 2.334744873046875 2.0284500000000003 2.347869873046875 2.0067 Q 2.3609948730468746 1.98495 2.381244873046875 1.9718250000000002 Q 2.401494873046875 1.9587 2.429244873046875 1.9587 Q 2.4824948730468748 1.9587 2.512119873046875 2.000325 Q 2.541744873046875 2.04195 2.541744873046875 2.1147 L 2.321994873046875 2.1147 M 2.944850830078125 2.0262000000000002 Q 2.944850830078125 2.00595 2.9343508300781247 1.9887000000000001 Q 2.9238508300781247 1.9714500000000001 2.905475830078125 1.9590750000000001 Q 2.8871008300781247 1.9467 2.8627258300781246 1.939575 Q 2.838350830078125 1.93245 2.810600830078125 1.93245 Q 2.784350830078125 1.93245 2.761475830078125 1.9392 Q 2.738600830078125 1.94595 2.7217258300781246 1.9594500000000001 Q 2.704850830078125 1.97295 2.695100830078125 1.992825 Q 2.685350830078125 2.0127 2.685350830078125 2.0389500000000003 Q 2.685350830078125 2.0749500000000003 2.7018508300781248 2.09595 Q 2.718350830078125 2.11695 2.743100830078125 2.1297 Q 2.767850830078125 2.14245 2.796725830078125 2.150325 Q 2.825600830078125 2.1582 2.850350830078125 2.1675750000000003 Q 2.8751008300781247 2.17695 2.891600830078125 2.1912000000000003 Q 2.908100830078125 2.20545 2.908100830078125 2.2302 Q 2.908100830078125 2.2407 2.904725830078125 2.25195 Q 2.9013508300781248 2.2632 2.892350830078125 2.2725750000000002 Q 2.883350830078125 2.28195 2.867600830078125 2.288325 Q 2.8518508300781247 2.2947 2.8278508300781247 2.2947 Q 2.797850830078125 2.2947 2.777225830078125 2.2853250000000003 Q 2.756600830078125 2.27595 2.743475830078125 2.2628250000000003 Q 2.730350830078125 2.2497000000000003 2.7247258300781247 2.2362 Q 2.719100830078125 2.2227 2.719100830078125 2.2137000000000002 L 2.670350830078125 2.2137000000000002 Q 2.670350830078125 2.2347 2.680100830078125 2.254575 Q 2.6898508300781248 2.2744500000000003 2.709725830078125 2.2902 Q 2.729600830078125 2.30595 2.7584758300781247 2.315325 Q 2.787350830078125 2.3247 2.825600830078125 2.3247 Q 2.894600830078125 2.3247 2.929475830078125 2.294325 Q 2.964350830078125 2.26395 2.964350830078125 2.2144500000000003 Q 2.964350830078125 2.17845 2.9474758300781247 2.1567000000000003 Q 2.930600830078125 2.13495 2.905100830078125 2.1218250000000003 Q 2.879600830078125 2.1087000000000002 2.849975830078125 2.10045 Q 2.820350830078125 2.0922 2.7948508300781247 2.0832 Q 2.7693508300781247 2.0742000000000003 2.752475830078125 2.0614500000000002 Q 2.7356008300781247 2.0487 2.7356008300781247 2.02545 Q 2.7356008300781247 2.0157000000000003 2.739350830078125 2.0048250000000003 Q 2.743100830078125 1.9939500000000001 2.752100830078125 1.984575 Q 2.761100830078125 1.9752 2.776100830078125 1.968825 Q 2.791100830078125 1.96245 2.813600830078125 1.96245 Q 2.836100830078125 1.96245 2.8526008300781247 1.968825 Q 2.869100830078125 1.9752 2.880350830078125 1.984575 Q 2.891600830078125 1.9939500000000001 2.896850830078125 2.0052000000000003 Q 2.902100830078125 2.01645 2.902100830078125 2.0262000000000002 L 2.944850830078125 2.0262000000000002 M 3.36031787109375 2.3157 L 3.36031787109375 1.7907000000000002 L 3.42856787109375 1.7907000000000002 L 3.42856787109375 2.2744500000000003 L 3.6993178710937498 2.2744500000000003 L 3.6993178710937498 2.3157 L 3.36031787109375 2.3157 M 3.7829351806640625 2.28345 Q 3.7829351806640625 2.26695 3.7949351806640625 2.25495 Q 3.8069351806640626 2.24295 3.8234351806640623 2.24295 Q 3.8399351806640625 2.24295 3.8519351806640625 2.25495 Q 3.8639351806640625 2.26695 3.8639351806640625 2.28345 Q 3.8639351806640625 2.29995 3.8519351806640625 2.31195 Q 3.8399351806640625 2.32395 3.8234351806640623 2.32395 Q 3.8069351806640626 2.32395 3.7949351806640625 2.31195 Q 3.7829351806640625 2.29995 3.7829351806640625 2.28345 M 4.015064208984375 2.3157 L 4.015064208984375 1.7907000000000002 L 4.083314208984375 1.7907000000000002 L 4.083314208984375 2.2744500000000003 L 4.354064208984375 2.2744500000000003 L 4.354064208984375 2.3157 L 4.015064208984375 2.3157 M 4.437681518554687 2.28345 Q 4.437681518554687 2.26695 4.449681518554687 2.25495 Q 4.461681518554687 2.24295 4.478181518554687 2.24295 Q 4.494681518554687 2.24295 4.506681518554688 2.25495 Q 4.518681518554687 2.26695 4.518681518554687 2.28345 Q 4.518681518554687 2.29995 4.506681518554688 2.31195 Q 4.494681518554687 2.32395 4.478181518554687 2.32395 Q 4.461681518554687 2.32395 4.449681518554687 2.31195 Q 4.437681518554687 2.29995 4.437681518554687 2.28345 M 5.111560546874999 2.21895 Q 5.035060546875 2.29095 4.930060546875 2.29095 Q 4.871560546875 2.29095 4.826560546874999 2.2707 Q 4.781560546874999 2.2504500000000003 4.751560546875 2.2167 Q 4.721560546875 2.18295 4.706185546875 2.1387 Q 4.690810546874999 2.09445 4.690810546874999 2.04645 Q 4.690810546874999 1.9954500000000002 4.706935546875 1.9530750000000001 Q 4.723060546875 1.9107 4.752310546875 1.87995 Q 4.781560546874999 1.8492000000000002 4.821685546875 1.83195 Q 4.861810546875 1.8147000000000002 4.909060546875 1.8147000000000002 Q 4.941310546875 1.8147000000000002 4.967935546874999 1.8222 Q 4.994560546874999 1.8297 5.015185546874999 1.8417000000000001 Q 5.035810546875 1.8537000000000001 5.048935546875 1.869075 Q 5.062060546874999 1.8844500000000002 5.0673105468749995 1.9002000000000001 L 5.122810546875 1.9002000000000001 Q 5.111560546874999 1.8747 5.093935546875 1.85295 Q 5.076310546875 1.8312000000000002 5.050060546875 1.8154500000000002 Q 5.023810546875 1.7997 4.988560546875 1.7907000000000002 Q 4.953310546875 1.7817 4.908310546875 1.7817 Q 4.843060546875 1.7817 4.789435546875 1.80045 Q 4.735810546874999 1.8192000000000002 4.697560546875 1.8540750000000001 Q 4.659310546875 1.8889500000000001 4.638310546875 1.938075 Q 4.617310546874999 1.9872 4.617310546874999 2.04795 Q 4.617310546874999 2.10045 4.634185546875 2.150325 Q 4.651060546875 2.2002 4.686310546874999 2.2388250000000003 Q 4.721560546875 2.27745 4.776310546875 2.301075 Q 4.831060546874999 2.3247 4.906810546875 2.3247 Q 4.954810546875 2.3247 4.992685546874999 2.3157 Q 5.030560546875 2.3067 5.058685546875 2.293575 Q 5.086810546874999 2.28045 5.105560546875 2.26545 Q 5.124310546875 2.2504500000000003 5.134060546874999 2.2392000000000003 L 5.111560546874999 2.21895 M 5.210164672851562 2.28345 Q 5.210164672851562 2.26695 5.222164672851562 2.25495 Q 5.234164672851562 2.24295 5.2506646728515625 2.24295 Q 5.267164672851562 2.24295 5.279164672851563 2.25495 Q 5.291164672851562 2.26695 5.291164672851562 2.28345 Q 5.291164672851562 2.29995 5.279164672851563 2.31195 Q 5.267164672851562 2.32395 5.2506646728515625 2.32395 Q 5.234164672851562 2.32395 5.222164672851562 2.31195 Q 5.210164672851562 2.29995 5.210164672851562 2.28345" fill="#004a80" fill-rule="nonzero"></path></g></g><defs><clipPath id="SvgjsClipPath24064"><path d=" M -5.257433426515879 -1.2708766497076203 h 4.857433426515879 v 4.857453299415241 h -4.857433426515879 Z"></path></clipPath><clipPath id="a8bf88d6d-1dae-49c2-a0f3-55c59d8a7b011f0e9624-70f4-49b9-b6eb-0a531a6fecd8"><path d=" M -5.51156084304189 5.629262831518248 L -0.14587801534714995 5.629262831518248 L -0.14587801534714995 -3.3135418813063167 L -5.51156084304189 -3.3135418813063167 Z"></path></clipPath><clipPath id="SvgjsClipPath240621f0e9624-70f4-49b9-b6eb-0a531a6fecd8"><path d=" M -5.257433426515879 -1.2708766497076203 L -0.40000000000000036 -1.2708766497076203 L -0.40000000000000036 3.58657664970762 L -5.257433426515878 3.58657664970762 Z"></path></clipPath><clipPath id="b8bf88d6d-1dae-49c2-a0f3-55c59d8a7b011f0e9624-70f4-49b9-b6eb-0a531a6fecd8"><path d=" M -5.51156084304189 5.629262831518248 L -0.14587801534714995 5.629262831518248 L -0.14587801534714995 -3.3135418813063167 L -5.51156084304189 -3.3135418813063167 Z"></path></clipPath></defs></svg>